<?xml version="1.0" encoding="UTF-8"?>
<!DOCTYPE svg PUBLIC "-//W3C//DTD SVG 1.1//EN" "http://www.w3.org/Graphics/SVG/1.1/DTD/svg11.dtd">
<!-- Creator: CorelDRAW -->
<svg xmlns="http://www.w3.org/2000/svg" xml:space="preserve" width="70.8744mm" height="17.2879mm" version="1.1" style="shape-rendering:geometricPrecision; text-rendering:geometricPrecision; image-rendering:optimizeQuality; fill-rule:evenodd; clip-rule:evenodd"
viewBox="0 0 7049.86 1719.62"
 xmlns:xlink="http://www.w3.org/1999/xlink"
 xmlns:xodm="http://www.corel.com/coreldraw/odm/2003">
 <defs>
  <style type="text/css">
   <![CDATA[
    .fil0 {fill:#f3f4f6}
   ]]>
  </style>
 </defs>
 <g id="Слой_x0020_1_1">
  <metadata id="CorelCorpID_0Corel-Layer"/>
  <g id="_1880613158512">
   <path class="fil0" d="M520.31 983.24c-9.21,0.53 -12.11,2.64 -10.27,9.21 2.11,-0.79 3.68,-0.79 5.79,-1.84 1.31,-1.57 2.11,-3.68 4.48,-7.37l0 0zm131.32 253.18c0.26,-8.43 -0.26,-14.21 -7.1,-18.69 -3.95,8.43 -8.95,14.74 -6.57,24.48 4.99,-2.1 9.47,-3.94 13.68,-5.79l0 0zm-202.65 291.87c4.48,11.32 6.32,21.32 18.69,28.16 1.84,-7.63 3.42,-12.63 4.21,-16.31 -6.05,-7.9 -11.58,-10.79 -22.9,-11.85l0 0zm15.8 -922.45c-12.63,-2.37 -20.53,1.58 -28.43,8.16 -1.84,7.1 -3.42,14.21 -5.79,22.11 11.32,2.11 18.42,-0.26 25.52,-6.06 2.38,-7.63 5.53,-15.53 8.69,-24.21l0 0zm215.54 991.14c4.73,-10.27 7.1,-17.89 10.27,-26.05 -10.52,-3.16 -10.52,-3.16 -25.01,1.05 -2.37,8.43 -5,17.37 -9.48,28.95 10.02,-1.58 17.12,-2.63 24.22,-3.95l0 0zm-167.9 -1000.35c-11.05,-6.57 -18.42,0 -27.63,4.21 2.37,9.21 -7.63,16.84 -3.95,27.9 7.9,-1.84 14.21,-3.42 21.32,-5.26 3.16,-9.21 6.32,-18.16 10.27,-26.85l0 0zm-135.28 58.16c28.43,-3.95 37.9,-14.74 33.95,-36.58 -7.9,2.89 -15.8,5.79 -22.11,8.16 -4.99,10.01 -7.89,18.17 -11.84,28.43l0 0zm214.76 -41.05c8.16,-14.74 11.32,-21.32 11.32,-34.74 -7.9,1.58 -15.53,3.16 -22.11,4.73 -3.95,10.52 -6.32,19.21 -9.48,28.95 8.44,0.54 13.96,0.81 20.27,1.06l0 0zm-45.27 4.48c6.84,-11.05 13.42,-20.26 10.52,-33.16 -7.9,1.31 -15.53,2.37 -21.32,3.68 -7.9,20.26 -7.9,20.26 -6.84,30 5.8,0.01 11.32,-0.26 17.64,-0.52l0 0zm227.39 407.93c3.16,-12.11 6.57,-23.16 10.52,-37.9 -10,6.06 -17.89,9.74 -25.27,13.16 -3.16,11.58 -5.79,21.32 -9.74,34.74 10.28,-3.95 16.59,-6.84 24.48,-10.01l0 0zm-447.93 -350.55c23.43,-3.42 32.89,-10.27 34.74,-38.16 -10.52,-2.37 -16.31,4.21 -24.21,9.48 -2.64,8.67 -5.79,17.62 -10.53,28.68l0 0zm634.53 267.13c24.21,-7.1 32.37,-19.21 31.32,-44.21 -7.1,3.16 -13.69,6.06 -19.48,8.68 -6.05,11.58 -11.32,22.63 -11.85,35.53l0 0zm-29.47 14.74c3.95,-11.05 7.9,-22.11 12.63,-33.95 -11.32,-1.58 -17.64,3.95 -24.21,8.16 -5.26,10.52 -12.11,20.53 -11.05,33.42 8.94,0.26 14.2,-3.95 22.63,-7.63l0 0zm-392.14 35.52c-15.8,26.05 -14.21,37.9 1.31,55.27 4.73,-13.42 11.58,-25.27 11.32,-38.68 -4.73,-5.52 -8.68,-10.78 -12.63,-16.58l0 0zm322.93 -32.89c-0.79,4.48 -1.84,9.21 -3.42,13.95 -1.58,5 -6.57,9.74 -1.31,16.31 7.9,-4.21 15,-8.68 22.9,-12.63 1.05,-11.58 10.79,-20.53 9.74,-32.64 -11.85,1.85 -20.54,6.85 -27.9,15.01l0 0zm-47.11 16.32c-9.48,10.79 -10.79,22.37 -11.85,34.74 11.32,-0.79 18.42,-3.95 25.01,-11.32 2.64,-10 5.79,-20 11.05,-33.69 -11.32,4.47 -18.42,7.63 -24.21,10.27l0 0zm-504.26 -316.87c-27.11,9.48 -37.64,23.16 -35.79,46.85 22.9,-8.17 34.22,-23.17 35.79,-46.85l0 0zm386.88 396.87c0.79,0.79 1.31,1.84 2.64,2.64 7.1,-3.68 15,-7.37 22.37,-10.79 3.95,-12.37 9.48,-22.9 11.32,-37.37 -10,5.26 -17.89,9.21 -25.79,12.89 -3.16,9.48 -5.53,17.37 -8.16,25.27 -0.8,2.11 -1.59,4.73 -2.38,7.37l0 0zm-76.32 515.83c-4.73,12.89 -11.58,24.74 -13.69,40.01 9.21,-1.84 15.8,-3.42 22.11,-5 6.84,-11.32 10.79,-22.37 12.63,-34.22 -7.63,-0.26 -14.21,-0.52 -21.06,-0.79l0 0zm31.32 -992.98c-11.85,-3.95 -11.85,-3.95 -23.95,-0.26 -8.16,9.74 -8.43,21.58 -11.85,35.26 9.21,-0.26 15.53,-0.79 23.16,-1.31 3.96,-12.11 8.69,-22.9 12.64,-33.69l0 0zm21.32 -4.21c-5.53,13.69 -9.48,25.79 -12.89,38.16 12.63,5.26 12.63,5.26 23.95,1.58 3.16,-12.11 7.37,-24.74 12.11,-39.48 -8.43,-0.26 -15.54,-0.26 -23.17,-0.26l0 0zm-92.12 1040.87c6.84,-14.21 11.05,-28.95 15.8,-44.74 -9.21,-0.26 -15.53,-0.53 -23.43,-1.05 -2.89,16.84 -12.63,31.58 -13.95,49.22 8.16,-0.79 14.47,-2.37 21.57,-3.42l0 0zm-91.58 -68.68c-3.16,8.95 -4.73,14.74 -7.1,20.53 -7.63,15 -0.26,25.52 10,36.06 8.16,-8.68 16.31,-35 16.84,-50.79 -4.99,-1.85 -11.84,-3.43 -19.73,-5.8l0 0zm212.12 -925.08c9.74,1.05 16.05,1.84 23.16,2.64 6.32,-16.05 11.05,-30.53 15.8,-45 -8.95,-6.84 -16.58,-5.79 -23.95,-1.58 -5.52,13.94 -9.47,27.36 -15,43.95l0 0zm-492.67 133.69c1.31,0.26 2.89,1.05 3.42,1.58 22.63,-17.11 40.27,-37.11 42.9,-66.84 -13.69,4.48 -21.58,12.63 -29.74,19.48 -5.52,16.05 -11.05,31.05 -16.58,45.79l0 0zm762.44 712.96c15.27,-7.63 25.27,-15 30,-27.63 5.26,-13.16 9.48,-26.58 14.21,-40.01 0.79,-2.11 0.26,-4.73 0.26,-7.63 -28.15,18.42 -35.52,45.8 -44.47,75.27l0 0zm-459.25 155.54c10,-1.05 15,-1.84 22.9,-2.89 5.79,-18.42 12.11,-36.58 18.42,-56.06 -7.1,-1.58 -13.95,-3.16 -21.06,-5 -8.67,21.06 -14.47,40.8 -20.26,63.96l0 0zm53.69 -518.72c-10.52,-16.84 -15.8,-29.74 -7.37,-45.8 4.73,-9.48 7.1,-20.26 10.52,-31.05 9.21,1.31 15.27,4.48 19.48,10.52 -6.84,20.79 -13.95,41.59 -22.63,66.33l0 0zm198.96 -463.99c5.79,-21.84 14.74,-40.01 18.42,-60.27 -9.21,-0.53 -16.05,-0.79 -23.95,-1.05 -5,17.64 -11.05,33.95 -16.84,51.59 7.11,3.15 12.63,5.52 22.37,9.74l0 0zm41.59 -56.59c-10.52,17.64 -20.79,50.79 -20,64.74 5.53,3.42 9.48,8.16 18.69,6.06 6.32,-21.06 14.21,-42.63 21.58,-65.8 -7.64,-1.84 -14.75,-3.42 -20.27,-5l0 0zm-700.06 282.13c12.37,-27.63 17.89,-55.53 28.95,-81.33 1.58,-3.95 1.84,-8.43 2.11,-13.42 -32.38,10.53 -56.59,61.06 -31.05,94.74l0 0zm739.8 -273.7c8.43,2.11 13.16,3.68 20.79,5.79 -7.37,27.63 -16.84,53.17 -26.32,79.74 -8.43,-1.84 -14.74,-4.73 -19.21,-12.37 8.16,-23.43 16.05,-47.11 24.74,-73.16l0 0zm383.71 483.99c-18.95,61.32 -37.37,120.8 -55.79,180.02 32.89,-50 50.27,-104.22 57.9,-161.07 0.26,-5.8 2.63,-11.59 -2.11,-18.95l0 0zm-321.61 -465.57c-9.21,-2.11 -14.74,-3.68 -22.37,-5.26 -9.48,29.47 -17.64,56.85 -27.11,85.79 6.06,4.21 11.58,8.43 19.21,13.95 9.74,-32.11 19.74,-61.58 30.27,-94.48l0 0zm-315.82 550.05c2.37,-4.73 4.48,-7.37 5.26,-10.52 10.27,-30.8 20,-61.58 29.74,-92.11 1.58,-3.68 1.58,-7.37 2.64,-12.11 -7.63,-1.05 -13.42,-1.84 -21.06,-2.64 -8.16,23.43 -13.95,45.8 -23.16,67.11 -6.84,17.88 -4.74,33.15 6.57,50.26l0 0zm320.29 -426.36c-7.63,-6.32 -12.37,-10.27 -18.42,-15.27 10.27,-33.16 21.58,-65.8 31.84,-100.8 8.43,3.42 15.27,5.79 22.11,8.95 -5.53,18.69 -11.85,36.32 -18.16,53.69 -4.73,16.58 -8.94,34.48 -17.37,53.43l0 0zm-256.33 308.97c7.9,-3.42 15,-6.57 22.9,-9.74 -0.53,13.95 -6.06,31.32 -15.8,41.85 -13.95,15.53 -25.27,32.37 -28.16,52.64 -1.05,9.48 -3.42,18.95 -1.84,28.43 2.11,21.32 -3.68,41.32 -12.37,62.9 -9.48,-13.69 -17.37,-24.48 -11.05,-40.79 15,-41.85 27.9,-84.22 42.37,-125.8 1.04,-3.17 2.37,-5.8 3.95,-9.49l0 0zm290.28 -272.92c14.21,-42.9 26.85,-82.11 39.48,-120.54 -5.26,-7.63 -11.58,-10.52 -17.89,-11.32 -7.37,10.27 -36.06,98.95 -37.37,113.95 3.68,4.49 8.94,9.75 15.79,17.9l0 0zm32.37 38.68c-6.06,-7.37 -10.79,-12.11 -15.53,-18.16 10,-43.69 25.79,-86.59 39.21,-130.53 9.21,-1.05 13.16,3.68 20,8.43 -10.78,46.05 -28.42,90.27 -43.69,140.27l0 0zm31.58 41.32c16.84,-52.11 33.16,-102.12 48.95,-150.28 -5.26,-8.16 -9.48,-13.69 -18.42,-15.8 -1.58,2.64 -2.11,4.48 -3.16,6.32 -12.63,40.79 -25.52,81.33 -38.95,121.85 -5.25,15.28 0.01,25.28 11.59,37.91l0 0zm-879.28 69.22c-11.32,-15.27 -14.21,-29.21 -7.9,-45.8 13.69,-37.37 25.79,-75.54 37.9,-113.17 5.53,-16.31 18.69,-25.52 37.37,-35.26 -2.37,6.32 -2.64,10 -3.95,13.42 -12.11,37.37 -27.11,73.43 -42.63,109.74 -7.63,17.11 -10.79,35.53 -16.31,53.69 -1.05,5.26 -2.64,10.52 -4.48,17.37l0 0zm978.77 -171.07c7.37,8.68 12.11,13.69 17.64,20.26 -19.73,61.32 -40.27,123.17 -60.27,186.6 -10.27,-7.1 -10.79,-16.58 -14.47,-25.52 18.41,-59.21 36.58,-118.44 57.11,-181.33l0 0zm-73.96 161.86c19.73,-58.69 38.68,-117.64 57.63,-176.33 -5.53,-6.32 -6.57,-16.05 -19.21,-18.16 -20.53,67.64 -42.11,134.75 -64.48,205.8 10.26,-4.47 16.57,-7.36 26.05,-11.31l0 0zm106.32 -118.7c-1.58,5 -3.16,8.16 -3.95,10.79 -9.48,27.37 -18.16,54.74 -26.85,82.11 -9.48,30.8 -19.21,61.05 -29.47,91.85 -3.95,16.05 -2.37,31.32 8.16,47.38 20.79,-66.33 40.53,-130.01 61.85,-193.7 5,-14.75 3.95,-26.06 -9.74,-38.44l0 0zm30 47.38c10.79,13.95 14.74,25.27 9.21,40.01 -22.11,67.64 -43.43,136.06 -65.8,204.23 -2.37,7.37 -4.73,14.74 -9.21,22.11 -2.37,-12.37 -5.53,-24.48 -5.79,-36.58 0.26,-10.52 3.68,-21.06 6.84,-31.05 18.95,-59.74 38.16,-119.22 57.11,-178.7 1.59,-5.81 3.96,-11.6 7.64,-20.01l0 0zm50.53 127.64c7.1,22.9 7.63,44.74 -0.79,68.43 -18.95,55.01 -34.22,110.8 -51.59,166.59 -11.85,36.84 -25.27,72.9 -36.32,110.01 -5.79,20.79 -21.06,35 -35.79,52.11 -3.95,-7.1 -0.26,-12.37 1.31,-17.37 20.79,-67.11 43.69,-133.7 64.22,-200.54 15.8,-50.27 31.84,-100.01 47.64,-150.28 2.37,-9.48 5,-19.21 8.16,-28.95 0.53,-0.01 1.84,-0.01 3.15,-0.01l0 0zm-191.86 453.46c11.05,-30.8 15.8,-62.9 33.69,-91.06 18.69,-27.9 26.85,-59.48 33.69,-90.8 5,-19.48 6.32,-40.01 10.52,-59.74 5.79,-23.95 13.69,-47.89 20.79,-71.32 11.85,-36.32 23.68,-72.12 34.74,-108.16 9.74,-32.89 20.53,-65.53 30.27,-98.17 0,-0.79 1.58,-1.58 2.11,-2.37 11.58,9.74 16.05,23.95 10.52,40.01 -7.9,25.27 -17.11,50.53 -24.48,75.54 -18.95,59.74 -37.37,119.48 -56.32,179.49 -20,63.69 -41.32,126.85 -61.05,190.8 -5.27,17.09 -18.43,27.35 -34.49,35.78l0 0zm-286.33 157.64c3.68,-0.26 6.57,-0.53 9.21,-1.58 60.8,-16.31 115.01,-43.96 167.9,-75.01 9.48,-5.26 17.37,-11.05 26.85,-17.37 -7.9,-12.89 7.9,-23.68 2.89,-38.95 -8.95,8.16 -14.74,15 -20.79,21.58 -6.57,7.37 -9.74,16.31 -12.89,25.27 -5.26,11.05 -11.05,13.95 -24.48,12.37 0.26,-4.73 1.05,-10 1.31,-15.8 -20,7.63 -29.74,20.53 -34.74,36.32 -6.57,5.26 -13.16,10.27 -22.9,7.1 0.26,-4.73 0.26,-8.95 1.84,-15.27 -9.48,4.21 -16.58,7.9 -22.37,11.32 -6.84,12.89 -9.48,28.95 -31.58,26.85 0.26,-4.73 0.26,-8.68 0.53,-14.74 -8.68,3.42 -15,6.06 -17.89,7.1 -8.95,12.37 -15.8,21.58 -22.37,30.8 -4.21,-0.53 -8.43,-1.05 -12.63,-1.58 -1.05,-7.63 6.06,-13.16 0,-20 -5.79,1.84 -12.11,3.68 -18.69,6.06 -2.37,8.43 -8.43,15 -7.9,25.01 14.48,-1.04 26.59,-5.26 38.7,-9.47l0 0zm-587.69 -548.99c-12.11,4.21 -22.11,7.9 -32.89,11.05 -17.11,5 -26.05,1.31 -32.64,-13.69 -6.32,-15 -12.89,-30.27 -19.21,-45.27 -19.21,-45.8 -38.43,-91.85 -57.63,-137.38 -2.64,-5.79 -5.79,-10.79 -9.21,-16.58 -2.64,-6.57 -4.48,-13.42 -6.06,-21.06 8.16,-6.57 15.27,-12.89 23.95,-17.89 47.89,-29.21 96.33,-58.69 146.06,-86.85 34.74,-20.26 70.53,-38.95 109.22,-54.48 37.9,-15.8 76.05,-33.16 114.48,-46.85 73.43,-25.52 148.17,-47.11 224.23,-64.48 40.53,-9.21 82.11,-12.89 122.9,-15.27 31.84,-1.84 63.42,-2.37 95,-1.58 73.16,2.37 140.54,19.48 206.6,45.8 48.69,19.48 88.43,49.22 125.8,82.11 34.74,31.05 63.95,67.11 87.12,106.32 32.11,54.48 58.96,110.8 71.59,172.65 5.26,29.47 13.69,58.96 16.05,88.43 6.32,62.9 -1.31,124.49 -32.89,183.43 -21.84,41.32 -47.89,79.48 -78.96,115.8 -33.16,38.16 -71.85,71.06 -111.06,102.12 -32.64,24.74 -67.37,46.05 -104.22,65 -38.16,19.48 -75.8,39.74 -112.11,60.53 -44.21,23.95 -90.01,41.58 -136.85,58.69 -36.58,13.42 -73.43,27.11 -111.33,38.16 -37.37,11.05 -75.8,18.95 -113.95,28.43 -17.89,4.48 -35,9.21 -52.9,13.42 -12.89,2.89 -26.58,5 -41.32,7.9 -4.73,-6.06 -11.05,-11.32 -14.21,-17.11 -14.47,-26.32 -29.21,-52.9 -43.69,-79.22 -17.89,-30.8 -35.79,-61.32 -52.9,-91.85 -5.26,-8.95 -10.52,-17.89 -15.8,-26.58 -3.16,-6.84 -4.48,-13.69 0.26,-23.16 11.58,-8.16 24.74,-17.37 43.96,-19.21 5.53,5.53 11.58,10.79 17.64,16.58 47.64,49.48 105.8,84.75 177.38,99.48 26.05,5.26 52.9,6.06 80.53,5 32.11,-1.31 63.95,-6.06 94.22,-15 25.01,-7.37 50.27,-17.37 73.96,-27.63 38.95,-16.84 75.8,-36.84 110.01,-61.32 35,-25.52 67.11,-53.43 95,-86.06 11.85,-13.69 22.37,-28.43 28.43,-45.53 10,-26.05 21.58,-51.59 28.95,-78.69 10.52,-38.68 12.63,-77.64 10.52,-116.86 -3.16,-32.64 -9.74,-63.95 -17.89,-95.53 -7.9,-30.53 -21.06,-60.01 -37.64,-88.43 -4.21,0.79 -9.21,1.31 -12.11,2.89 -58.69,26.05 -118.43,52.64 -177.91,78.69 -40.27,17.64 -80.27,34.74 -120.54,51.84 -1.31,0.79 -2.89,1.31 -5,1.84 -42.9,16.84 -59.74,45 -55.79,90.01 2.89,19.48 11.32,37.9 16.31,57.11 1.31,4.21 2.37,8.43 3.68,11.32 -7.9,23.16 -28.69,28.69 -50.79,33.95 -3.42,-3.95 -8.95,-7.37 -10.79,-12.11 -41.85,-87.64 -83.43,-175.54 -125.27,-263.45 -1.31,-3.42 -1.84,-7.37 -3.68,-12.37 12.89,-5.79 25.27,-11.58 38.95,-17.89 3.42,0.26 8.43,0.79 13.42,1.05 8.68,10 16.84,19.48 25.01,29.21 11.32,15 25.79,26.32 44.47,33.42 20.26,8.43 41.32,7.1 62.11,-2.11 36.58,-16.31 73.43,-33.16 110.01,-49.22 55.27,-23.95 110.54,-47.89 167.12,-71.59 16.31,-7.1 32.37,-14.47 49.48,-22.11 -4.48,-14.21 -11.85,-27.11 -19.73,-38.68 -35,-46.58 -75.01,-89.48 -123.69,-124.49 -43.16,-31.32 -90.01,-57.9 -143.69,-72.12 -18.16,-4.73 -36.32,-7.37 -55.27,-9.21 -54.74,-4.48 -108.43,-1.31 -162.38,10 -56.85,11.85 -111.59,28.95 -163.44,55.01 -51.06,26.05 -94.74,61.58 -127.64,107.12 -17.11,23.16 -25.27,48.95 -32.89,75.27 -5,18.42 -9.21,37.64 -12.37,56.59 -4.48,23.68 -0.53,47.11 2.64,70.79 0.52,6.35 1.04,13.19 1.3,21.87z"/>
   <path class="fil0" d="M5804.97 710.59c31.05,47.11 50.79,97.38 46.85,153.96 2.11,-1.58 2.64,-2.89 3.42,-4.48 10.52,-36.06 8.43,-71.85 -6.57,-106.32 -8.44,-19.22 -21.85,-35 -43.7,-43.16l0 0zm255.29 516.88c-3.42,3.16 -6.32,5.26 -8.43,7.9 -21.06,23.43 -42.37,46.85 -62.64,70.79 -12.11,13.16 -22.63,27.37 -31.58,42.11 -8.43,13.69 -15.53,29.21 -11.85,48.16 3.42,-2.64 5.53,-4.48 7.9,-6.57 12.63,-17.11 26.05,-33.95 37.9,-51.06 21.84,-29.74 41.58,-59.21 61.85,-89.48 3.42,-6.06 8.94,-11.85 6.84,-21.84l0 0zm-412.94 -510.57c-1.31,-0.79 -2.11,-1.84 -3.42,-2.89 -2.89,1.31 -6.32,2.37 -10,3.95 -7.1,4.48 -14.21,9.21 -21.84,13.95 -33.69,20.79 -59.21,49.22 -74.48,85.53 -7.1,17.37 -4.21,31.05 11.05,42.11 11.32,7.37 23.95,11.32 38.16,13.16 8.43,-17.37 11.32,-35.53 17.64,-52.64 6.32,-17.89 12.63,-35.79 20.53,-53.17 6.84,-17.1 14.74,-33.41 22.37,-49.99l0 0zm447.67 362.93c7.1,-3.16 9.74,-5.26 14.21,-6.32 23.16,-7.37 45.8,-15.8 68.95,-21.58 21.84,-5.26 38.16,-17.89 54.21,-30.53 4.21,-3.16 6.32,-8.68 9.21,-13.16 2.64,-6.06 5.53,-12.63 8.43,-18.42 -1.58,-16.05 -7.9,-28.69 -20,-40.79 -19.21,-19.73 -30.53,-43.96 -28.43,-72.37 1.31,-14.21 6.32,-27.9 14.47,-39.74 8.95,-13.16 20.26,-25.79 30,-38.68 2.89,-3.95 5.53,-7.37 2.64,-13.95 -2.11,0 -5,-0.53 -8.43,-0.26 -23.95,0.79 -47.89,0.26 -71.06,5.53 -31.58,6.84 -64.74,12.63 -95.8,23.95 -26.58,9.48 -54.21,17.89 -80.27,28.95 -17.64,7.1 -33.69,17.64 -50,26.85 -3.42,1.84 -6.84,3.42 -13.95,7.1 3.42,-13.95 7.1,-23.95 9.74,-34.74 5.53,-27.11 8.95,-54.21 3.16,-81.85 -9.48,-46.58 -38.16,-76.58 -85.53,-89.74 -24.74,-7.1 -50.53,-8.16 -76.05,-5.26 -25.27,2.64 -49.22,7.1 -76.05,11.05 2.11,-3.95 4.21,-7.37 7.1,-10.27 37.11,-42.9 84.22,-72.37 136.06,-95 40.01,-17.11 81.33,-26.85 125.01,-31.84 45,-5 89.21,-2.64 134.22,1.31 19.73,1.84 39.21,6.06 58.96,9.48 41.58,7.1 81.06,20.53 120.27,33.42 50.79,17.11 97.91,40.53 139.75,73.69 19.73,15.53 36.84,32.89 51.59,53.43 12.11,18.16 22.9,36.84 31.32,56.59 9.21,19.73 12.89,40.79 14.47,61.32 3.16,44.47 -1.31,88.43 -19.48,129.75 -20,42.37 -48.16,77.9 -88.69,102.9 -19.73,11.32 -38.68,21.84 -59.21,29.21 -33.69,12.11 -68.95,16.58 -105.01,17.37 -48.69,1.05 -97.38,-7.63 -143.96,-23.95 -2.11,-0.81 -4.74,-1.59 -11.85,-3.43l0 0zm-417.4 -364.78c-30.8,49.74 -50,101.85 -65.27,156.6 13.42,6.06 23.95,3.68 33.95,-4.21 13.95,-11.05 27.37,-22.9 41.58,-33.69 5.53,-4.48 12.63,-8.95 19.73,-10.79 9.21,-2.64 18.42,-3.42 25.27,6.57 2.11,10.27 -2.64,18.16 -9.21,25.27 -14.74,14.47 -31.84,22.63 -50.79,28.95 -16.84,5.79 -34.48,9.48 -52.9,10.52 -4.21,0.26 -7.1,1.58 -11.32,2.37 -5.53,15 -7.1,30.53 -8.43,45.8 -3.68,27.9 -6.32,56.06 -10.79,83.69 -2.89,15.8 -8.43,30.8 -13.42,46.05 -2.11,5.53 -5,10.52 -11.85,11.58 -7.1,-2.37 -7.1,-8.16 -5,-13.16 12.11,-40.01 12.63,-81.59 16.84,-122.9 2.11,-16.84 5.53,-33.42 7.1,-51.32 -8.43,-1.84 -16.84,-3.68 -25.27,-5 -21.06,-2.89 -41.58,-8.95 -59.21,-20.79 -9.21,-7.1 -17.64,-15 -23.95,-25.79 -10.52,-20.79 -8.43,-42.63 7.1,-59.21 12.63,-11.85 24.74,-23.43 38.16,-32.89 23.95,-16.05 47.11,-30.27 74.48,-40.01 17.64,-6.57 35.79,-12.89 53.43,-18.42 11.85,-3.42 21.84,-9.21 28.69,-19.48 28.16,-40.01 65.27,-72.37 106.59,-98.17 34.48,-20.79 70.79,-35 109.49,-44.21 23.95,-5.79 47.64,-10.52 71.59,-13.95 16.05,-2.37 33.69,-2.37 50.53,-2.64 14.74,-0.53 29.47,-1.05 43.69,0.26 35,3.16 69.48,7.1 103.96,10.79 6.32,0.53 12.11,2.64 17.64,3.95 19.73,4.48 40.79,8.16 60.53,13.69 23.95,6.84 47.89,14.21 70.27,22.9 27.37,10 54.21,21.84 79.74,36.32 44.47,25.01 83.95,55.79 113.17,96.59 29.21,39.48 45.8,83.43 48.16,132.38 1.58,27.37 0.53,54.74 -6.32,81.33 -14.47,48.95 -38.16,93.43 -74.48,130.01 -29.47,28.43 -63.95,48.42 -102.64,61.05 -35.79,11.85 -72.64,19.73 -111.33,16.31 -12.63,-1.05 -24.74,-1.05 -37.37,-1.31 -45.8,-1.31 -88.96,-13.95 -131.33,-29.21 -5,-1.58 -10.52,-2.89 -15.53,-3.16 -2.89,0 -6.32,2.11 -10,4.21 4.21,2.11 7.1,3.95 10.52,4.73 44.47,9.21 56.59,41.06 56.06,76.32 -0.53,17.89 -4.73,35 -14.47,51.06 -27.37,45.27 -58.96,87.64 -92.11,128.96 -18.95,23.95 -31.58,51.06 -40.79,79.48 -2.11,6.57 -0.79,14.74 -1.31,22.9 3.42,4.21 7.1,8.68 10.79,13.95 10.52,-5.79 14.74,-14.21 18.95,-22.9 7.63,-17.89 15.53,-36.06 22.37,-54.48 16.05,-40.79 40.01,-76.32 73.69,-105.01 5,-3.95 10.52,-7.37 16.84,-9.21 18.95,-6.06 37.37,-11.85 55.79,-17.64 4.21,-1.31 8.43,-2.37 12.63,2.89 -0.79,2.11 -2.11,5 -4.21,7.1 -7.1,7.63 -13.95,14.47 -21.06,21.84 -22.37,22.11 -37.11,47.64 -48.42,76.58 -5.53,15 -11.32,30 -17.37,44.47 -13.42,30.53 -34.48,55.27 -63.42,73.96 -1.31,4.48 -3.42,8.95 -5.53,14.21 -1.31,1.84 -4.21,5.26 -7.9,6.32 -21.06,6.57 -43.16,12.63 -64.22,18.69 -2.89,0.53 -6.32,0.53 -8.43,-0.79 -7.9,-6.06 -18.42,-7.63 -25.52,-15.8 -7.1,-7.9 -16.31,-13.95 -24.21,-21.84 -10,-10.52 -20.53,-21.06 -29.21,-32.89 -16.31,-23.68 -15.8,-49.48 -5.26,-75.27 8.43,-18.42 20.53,-34.48 33.95,-48.95 20.53,-23.16 42.37,-45.8 62.64,-69.22 18.42,-21.06 38.16,-42.63 47.89,-69.74 2.89,-8.43 4.21,-17.37 5.53,-26.32 2.11,-13.42 -4.48,-23.95 -15.8,-31.58 -13.42,-9.21 -28.16,-13.69 -43.69,-13.95 -17.64,-0.53 -33.95,3.95 -50.79,7.1 -5.53,1.31 -12.63,2.37 -18.42,0.26 -1.31,-6.06 2.11,-8.43 5.53,-10.27 9.74,-4.48 19.73,-9.48 30.27,-12.63 23.95,-6.84 47.89,-12.89 73.43,-17.11 15.53,-2.64 31.05,-8.95 50,-14.21 -5.53,-2.89 -9.21,-4.73 -12.11,-6.32 -23.95,-13.95 -46.58,-30 -61.58,-54.48 -10,-17.64 -7.9,-33.95 1.84,-49.48 14.74,-22.63 37.11,-33.16 63.95,-35.53 1.31,-0.26 2.89,0.79 5.79,1.84 -12.63,7.63 -24.48,14.21 -36.58,21.58 -14.74,8.95 -24.48,21.84 -21.58,39.48 1.58,8.16 5,16.31 10,23.43 10,16.05 24.74,28.16 41.06,38.16 7.63,4.73 15.53,9.21 25.52,15 7.63,-1.58 16.84,-1.84 25.52,-5.26 12.63,-5.53 27.37,-7.63 41.58,-16.31 -5,-10 -8.68,-19.73 -14.21,-28.16 -8.68,-13.95 -18.42,-27.37 -28.43,-40.79 -12.63,-18.16 -17.89,-38.68 -20,-60.27 -2.11,-28.43 3.42,-55.53 13.69,-81.59 1.31,-2.37 2.11,-4.73 3.42,-8.43 -7.63,-1.58 -13.42,1.58 -18.95,4.48 -31.58,16.58 -63.16,33.95 -91.32,57.11 -28.16,23.43 -51.84,50.53 -72.37,80.8 -3.42,5.79 -9.21,10.27 -13.42,15.8 -3.42,5 -7.63,9.48 -11.32,15 -18.16,30 -33.69,61.32 -53.95,90.01 -39.48,56.59 -83.95,108.96 -136.85,154.76 -18.95,16.84 -40.27,32.89 -62.11,47.38 -24.74,16.31 -52.37,28.43 -81.33,38.16 -41.06,13.95 -83.43,25.52 -125.8,30.27 -22.63,2.37 -46.05,-0.79 -68.69,-1.58 -3.42,0 -7.63,-0.26 -13.42,-0.53 23.16,37.37 48.69,68.69 88.96,86.32 22.63,9.74 44.47,16.05 68.69,17.89 28.95,1.84 56.59,-3.16 83.43,-12.63 30.27,-10.52 57.37,-26.32 81.33,-47.11 14.74,-13.42 29.74,-26.85 45.27,-39.74 5.53,-4.73 11.32,-11.05 18.95,-10.79 5.79,5 2.89,9.48 0,12.89 -8.43,10.52 -16.84,21.32 -26.05,30.8 -33.16,32.37 -70.79,60.01 -115.28,76.32 -44.47,16.05 -89.21,18.42 -135.28,4.21 -48.16,-14.74 -87.64,-41.85 -115.28,-82.37 -10.52,-13.95 -16.31,-29.47 -26.05,-46.58 -7.63,-4.21 -19.73,-9.74 -28.95,-14.74 -5,-6.84 -7.63,-12.89 -11.85,-18.16 -21.84,-31.58 -23.16,-65.53 -8.95,-99.75 10.79,-28.69 29.74,-52.64 52.37,-73.16 21.84,-19.48 48.69,-26.85 77.64,-26.05 14.21,0.26 28.16,2.89 36.58,15.8 -2.89,7.1 -10,7.63 -15.53,6.57 -15.53,-2.64 -29.74,2.11 -43.16,8.68 -14.74,7.37 -28.95,16.05 -42.37,24.48 -14.21,9.48 -21.84,23.16 -24.21,38.95 -2.89,21.84 1.31,42.63 13.95,61.32 0.79,1.31 2.89,1.84 4.21,3.42 2.11,-2.64 5,-4.48 7.1,-6.84 15.53,-19.48 36.06,-31.58 60.27,-38.43 22.63,-6.32 45.27,-12.11 68.43,-18.95 14.74,-4.48 30.27,-9.21 44.47,-15 20.53,-7.63 38.16,-20.26 51.59,-36.84 2.89,-3.42 5.53,-6.84 8.43,-8.95 2.89,-1.58 7.1,-1.31 11.32,-1.84 3.42,10 -2.11,15.8 -6.32,21.58 -21.84,28.69 -51.59,47.89 -86.85,58.16 -28.95,8.68 -57.9,16.31 -86.32,25.52 -12.11,3.68 -21.84,10.27 -32.64,16.58 -7.63,5 -14.21,11.85 -17.64,21.58 1.31,1.31 2.11,3.42 4.21,4.21 23.16,11.58 46.05,24.74 71.32,30 27.63,5.26 56.59,8.16 84.22,2.11 15.53,-3.95 30.27,-12.63 43.96,-20.79 33.95,-20.53 65,-45.53 92.64,-72.9 39.48,-40.27 77.64,-82.37 108.69,-129.49 12.63,-18.95 20.26,-39.48 27.37,-60.53 18.95,-55.79 16.58,-113.17 17.37,-170.54 0.53,-34.74 -10,-67.11 -28.43,-97.11 -1.31,-2.37 -2.64,-4.73 -3.42,-7.1 -6.32,-15.27 -16.31,-27.11 -32.37,-35.26 -9.74,-5.26 -18.95,-12.89 -31.58,-16.31 -2.84,-0.78 -7.05,-1.03 -12.58,-1.83z"/>
   <path class="fil0" d="M6813.74 1389.59c-0.79,-3.16 -0.79,-5 -0.79,-7.37 -1.84,-26.58 -12.37,-40.79 -37.9,-48.95 -10.79,-3.68 -21.84,-3.16 -33.16,-0.26 -17.64,4.21 -33.16,11.05 -47.89,21.84 -26.05,20 -46.32,44.74 -61.58,73.69 -5.53,11.05 -8.16,22.63 -8.16,34.74 0.26,22.63 18.69,43.69 42.11,48.69 16.31,4.21 32.64,0.53 47.38,-4.48 40.27,-13.69 71.85,-38.43 90.54,-77.64 6.3,-12.9 8.93,-26.59 9.46,-40.28l0 0zm-51.06 143.17c-12.63,8.43 -23.95,16.84 -35.79,22.9 -44.47,22.11 -89.21,22.9 -133.96,0 -13.42,-6.57 -24.21,-16.58 -32.11,-29.21 -9.21,-15.53 -10.79,-32.89 -8.95,-49.48 3.16,-35 17.89,-66.06 37.37,-95 12.63,-17.64 26.58,-33.42 41.85,-47.64 38.68,-34.22 82.9,-53.69 136.85,-50.27 16.31,0.79 31.84,4.73 46.85,11.05 24.21,10.27 38.43,27.37 42.37,52.9 0,2.37 0.79,4.73 2.11,10 7.63,-9.21 11.05,-18.69 16.05,-26.58 9.74,-15.53 13.16,-17.37 31.05,-11.85 16.31,5 16.31,5 27.63,16.58 2.11,7.63 -0.53,14.47 -4.73,20.79 -18.16,32.11 -36.84,63.95 -54.21,96.33 -14.47,26.85 -29.21,54.21 -42.37,81.59 -4.73,9.74 -9.74,20 -8.16,32.89 4.21,0.79 7.1,2.37 10.52,2.64 18.42,0.79 36.84,-2.11 52.37,-12.89 35,-24.74 65.8,-54.74 83.17,-94.22 24.21,-53.69 24.21,-108.43 -3.95,-162.12 -7.9,-15.27 -21.58,-26.32 -35,-37.11 -27.11,-20.53 -58.43,-34.22 -91.59,-43.96 -33.42,-10 -67.9,-15.27 -102.64,-17.89 -47.38,-3.95 -90.27,6.32 -131.06,27.11 -30.27,15.53 -58.43,34.22 -80.8,59.48 -30.27,33.16 -53.17,70.27 -62.11,114.75 -6.06,28.43 -4.48,56.85 2.11,85.53 5.79,25.27 13.69,49.22 29.47,70.27 10,13.95 21.58,26.85 34.48,38.95 15.8,15.8 33.69,30.27 53.43,41.32 28.43,15.27 58.43,25.27 89.74,31.32 33.42,6.06 67.37,8.16 100.8,6.84 54.48,-1.84 105.54,-14.74 152.65,-40.27 5,-2.89 10.52,-5.79 15.53,-7.9 10.52,-3.95 15.53,-2.11 22.9,9.21 -0.79,7.37 -5.53,13.16 -11.85,17.11 -7.63,4.73 -14.74,10 -22.63,13.95 -52.9,24.74 -106.59,44.74 -165.54,47.38 -17.11,0.53 -33.95,2.37 -51.84,2.37 -10.79,-0.26 -22.11,-2.64 -33.42,-4.21 -33.95,-5 -67.37,-12.37 -99.48,-25.52 -37.11,-15.8 -71.85,-35.26 -101.06,-62.9 -40.01,-37.9 -65.8,-82.64 -76.85,-137.12 -8.95,-49.48 -2.89,-96.06 13.95,-142.38 13.16,-36.58 35.53,-67.37 62.11,-95 44.21,-45.8 98.43,-75.8 161.07,-91.06 44.47,-10.52 88.17,-14.74 134.75,-9.48 39.48,4.73 78.43,13.16 115.28,28.16 38.95,16.05 75.27,37.9 103.96,68.69 35.79,38.16 57.63,82.64 56.85,134.75 0,63.69 -22.63,118.43 -65.27,165.28 -38.43,42.37 -87.9,57.37 -145.28,52.37 -15,-1.31 -29.74,-2.89 -43.96,-10 -8.68,-5 -17.11,-10.52 -25.01,-17.37 -8.68,-6.84 -9.48,-17.37 -9.48,-27.63 0.53,-3.43 1.31,-7.64 1.84,-13.44z"/>
   <path class="fil0" d="M3439.76 455.3c1.84,-24.74 17.37,-33.69 39.21,-36.06 11.32,-1.31 22.37,-1.84 33.69,-1.31 76.58,3.16 152.9,6.57 228.7,10 7.63,0.26 15.53,1.05 22.37,1.58 2.11,0 3.42,0.26 5,0.53 25.27,4.21 34.22,16.31 30.27,40.53 -6.57,10.52 -15,18.42 -28.43,18.16 -6.84,-4.73 -13.16,-9.74 -20.79,-12.63 -9.74,-3.68 -20.26,-3.68 -29.47,1.05 -18.95,9.48 -39.48,13.16 -62.11,13.16 -0.79,3.42 -2.11,6.06 -2.89,9.21 -1.58,12.11 -5.79,22.37 -14.47,32.11 -6.32,7.1 -10,15.8 -6.84,26.32 3.42,3.42 7.63,7.1 13.16,11.58 -5.26,19.48 -10.52,39.21 -15,55.53 3.42,10.79 6.06,17.89 6.57,25.27 0.53,6.84 -0.26,13.69 -1.05,22.11 8.95,0.79 16.84,1.84 25.27,1.84 30.27,0.26 59.74,1.84 90.01,-4.21 14.74,-3.16 29.74,-8.16 42.37,-16.05 14.21,-8.68 27.63,-17.64 41.85,-26.05 10.79,-6.57 19.21,-14.74 23.68,-26.58 28.43,-12.63 46.05,-35.26 68.17,-53.43 29.74,-23.43 58.16,-46.58 88.17,-68.95 26.85,-19.73 57.37,-30 91.06,-33.69 29.47,-3.42 59.74,-5.53 89.21,-2.37 8.43,0.79 17.64,2.11 24.48,3.95 18.16,3.95 27.37,13.16 27.63,30.53 0,11.32 -1.05,22.37 -1.84,33.69 -2.37,20.79 -4.73,41.58 -6.32,62.64 -1.58,11.85 -5,23.16 -11.58,33.16 -5,8.43 -12.11,13.95 -23.43,13.69 -8.43,0 -16.84,0 -25.27,-1.58 -6.32,-1.31 -13.16,-5 -16.05,-14.21 5,-2.89 10,-6.32 15.53,-10.27 11.58,-19.73 1.84,-43.43 9.21,-62.11 -4.73,-10.27 -8.95,-18.16 -13.69,-29.21 -4.21,-5 -13.16,-3.68 -20.26,-6.06 -9.21,0.53 -16.84,0.79 -23.95,1.31 -15.53,1.58 -30.27,3.95 -42.37,16.84 -8.43,10.27 -22.63,15.27 -36.06,19.73 -5,1.58 -11.32,2.64 -15.53,6.06 -13.42,11.32 -25.52,23.68 -41.32,38.43 -17.64,6.57 -34.74,20.26 -49.74,37.37 -3.68,4.48 -8.68,8.16 -13.42,12.11 -4.21,3.42 -9.21,6.57 -13.42,9.74 -17.11,12.11 -32.64,24.48 -50.53,35.79 -5.53,3.68 -13.42,5.53 -20.53,6.57 -16.84,2.11 -23.43,8.43 -24.21,27.37 4.21,1.58 8.43,4.73 13.16,5 37.37,2.11 68.17,17.37 93.16,42.37 33.95,34.22 62.38,72.9 86.59,113.69 -6.84,30.53 17.64,42.11 39.48,57.11 -1.05,21.84 12.89,38.43 26.05,57.63 6.32,0.79 14.21,1.84 21.06,2.37 36.58,1.31 71.85,2.64 107.12,4.21 18.95,0.79 28.95,5 43.43,18.42 1.31,5.53 2.64,11.58 4.73,18.16 -2.11,4.73 -4.21,9.74 -6.57,14.47 -17.11,9.48 -35.53,14.21 -55.79,13.69 -23.16,-0.53 -47.38,-0.26 -71.32,-1.05 -18.95,-0.79 -38.16,-2.37 -57.9,-4.73 -15.53,-2.11 -28.16,-10 -37.11,-23.43 -28.95,-44.47 -58.16,-89.21 -88.43,-132.9 -18.69,-26.32 -36.58,-52.37 -57.63,-76.85 -12.37,-14.47 -28.43,-26.32 -44.47,-37.64 -20.26,-13.95 -43.96,-20 -67.9,-25.79 -47.11,-11.85 -96.33,-11.05 -146.86,-13.95 -4.21,5 -9.21,10.52 -15,16.31 4.21,9.48 8.16,17.89 12.37,26.05 0,0.79 0.79,2.37 0,2.89 -10.79,13.42 -12.37,28.43 -12.63,44.47 -0.26,18.42 -3.95,36.84 -5.79,55.01 -0.79,4.21 -0.79,8.68 -0.79,13.42 2.11,4.21 3.95,8.68 7.37,14.74 -2.37,14.74 -4.73,30.8 -7.1,47.11 -1.58,7.9 -3.95,16.31 5.26,24.48 16.84,1.84 36.06,3.42 55.01,0.79 9.21,-1.05 18.42,-2.37 28.16,1.84 12.63,5.26 24.74,0.79 36.84,-3.16 2.89,1.84 4.73,3.16 6.84,4.21 1.31,8.95 3.16,16.84 5.26,26.05 -3.68,11.85 -13.69,18.16 -26.32,21.32 -21.84,4.73 -43.16,5.53 -64.74,-1.05 -5.53,-1.58 -11.32,-2.89 -16.84,-2.64 -25.52,0.53 -51.59,2.64 -76.85,2.37 -23.43,0 -47.38,-1.84 -71.32,-2.89 -14.74,-7.63 -30,-14.21 -48.42,-11.85 -4.73,-3.42 -10.52,-6.57 -17.37,-11.32 -9.21,2.64 -19.21,5.79 -29.74,8.68 -15.27,-11.58 -15,-26.32 1.31,-41.85 16.31,1.84 33.16,-2.64 47.89,7.37 6.32,3.68 13.42,3.16 20.53,0 11.32,-5 23.43,-6.57 36.84,-7.1 9.21,-0.53 17.89,-5.26 26.32,-7.9 8.68,-15.53 3.95,-31.58 9.21,-47.38 9.21,-9.48 19.21,-20.26 16.84,-35 -3.42,-7.63 -6.84,-14.47 -9.48,-20.53 3.68,-6.57 6.57,-11.85 10,-17.11 -2.64,-4.73 -4.73,-9.21 -7.37,-13.95 0.79,-9.74 1.05,-20 1.84,-25.27 8.16,-17.89 14.74,-31.05 20.53,-44.21 5.79,-12.11 3.16,-23.68 -5.79,-33.42 -4.73,-5.79 -5.53,-12.63 -4.48,-19.73 1.58,-16.31 2.64,-32.37 4.21,-48.42 1.58,-12.63 4.48,-24.21 11.85,-35.53 5,-7.9 8.68,-17.37 11.58,-26.58 3.68,-13.16 -2.37,-24.48 -12.11,-35.79 2.37,-18.69 4.21,-38.68 5.79,-57.63 7.1,-4.73 12.63,-8.68 17.64,-12.63 4.21,-6.84 2.89,-12.63 -2.64,-17.37 -20.26,-10.27 -37.9,1.58 -57.11,3.95 -5.53,-1.84 -11.85,-3.68 -18.16,-5.79 -10.52,2.37 -21.84,5 -33.16,7.1 -19.51,2.66 -36.09,-7.61 -42.14,-26.03z"/>
   <path class="fil0" d="M4646.44 472.67c-11.32,-3.16 -21.58,-5.79 -32.11,-8.43 -28.16,-6.84 -56.06,-13.69 -84.22,-20 -18.16,-3.95 -35,-6.57 -53.17,-10 -27.37,-5.79 -56.06,-9.21 -82.64,-20.53 -6.32,-2.89 -13.42,-3.68 -21.84,-5.79 -0.79,-2.37 -2.11,-5 -3.42,-7.63 1.31,-1.58 2.11,-3.16 3.42,-3.95 7.1,-4.21 14.74,-3.16 21.06,-1.31 33.69,8.95 67.11,13.42 100.8,17.89 28.69,3.95 57.37,10.27 86.32,15.27 23.95,4.21 47.64,8.16 70.79,12.11 2.11,0.26 5,0 8.43,0.26 2.11,-5.79 4.21,-11.85 7.1,-17.37 15.53,-31.05 31.84,-61.85 46.85,-93.16 7.9,-14.74 15.53,-29.47 22.11,-44.47 3.68,-9.21 10,-14.47 20.53,-16.31 7.63,-1.31 14.74,-5 20.53,-9.74 27.37,-21.58 52.11,-45.53 71.32,-74.21 11.32,-16.58 21.84,-32.89 32.64,-49.48 5.53,-8.95 8.43,-10 20.53,-7.63 5,5.53 2.11,10.79 -0.79,16.31 -9.21,18.69 -19.21,37.64 -27.63,57.11 -23.43,54.74 -53.95,106.32 -82.37,158.69 -16.31,29.74 -31.32,60.8 -43.43,92.9 -0.79,1.84 -0.79,3.95 -1.31,6.57 11.85,6.84 25.27,6.57 39.21,11.05 3.68,-7.1 7.9,-13.42 10,-20.26 21.32,-49.22 46.85,-96.06 72.37,-142.12 22.63,-38.16 41.85,-76.85 58.16,-117.12 12.63,-33.95 28.43,-67.37 41.06,-101.06 8.43,-20.53 15,-41.58 22.63,-62.11 5,-12.63 7.1,-15.53 21.06,-28.16 3.42,8.95 3.42,16.58 0.53,25.01 -23.43,69.48 -50.27,137.65 -79.48,205.54 -16.31,37.11 -37.64,71.85 -57.37,106.85 -24.74,42.11 -42.63,86.85 -63.16,130.8 -0.79,1.84 -1.58,3.95 -2.11,7.63 5,1.58 9.21,3.42 13.42,4.48 28.16,5.79 56.85,11.32 85.53,16.84 24.48,4.73 49.22,10.27 73.69,13.95 10.52,1.58 21.84,0.53 35.79,0.53 18.16,16.84 34.22,37.37 36.84,65.8 -5,4.73 -9.21,8.95 -12.63,12.11 -18.95,4.73 -35.26,-1.84 -52.11,-5 -57.63,-10.52 -111.59,-31.58 -165.01,-52.64 -9.74,-3.68 -19.73,-7.1 -29.47,-10.52 -0.79,-0.26 -2.11,0.26 -5,0.53 -2.11,4.73 -5.53,10.27 -7.9,16.05 -17.89,47.38 -35,94.74 -53.69,142.12 -10,27.63 -21.58,54.48 -31.58,82.11 -16.58,45.8 -31.84,92.38 -42.63,139.75 -5.26,20.26 -10.27,40.79 -13.16,61.32 -3.68,19.73 -3.16,39.74 6.57,58.69 0.79,2.37 0.79,5.26 0.79,7.63 -9.21,7.63 -11.32,8.16 -18.42,2.64 -14.74,-10.79 -16.84,-26.32 -17.37,-41.85 0.26,-24.48 6.06,-48.16 11.05,-71.59 16.84,-71.59 44.74,-139.49 71.32,-207.91 19.48,-50.27 36.58,-100.28 55.27,-150.28 5.79,-16.05 12.89,-31.58 20,-49.48 -13.95,-4.48 -25.79,-8.68 -41.32,-13.69 -5.79,12.11 -12.11,23.43 -16.31,35 -25.01,60.27 -50,120.8 -73.16,181.59 -11.58,28.69 -20.26,58.16 -30.27,87.12 -10.27,30 -20.26,59.74 -30.27,90.01 -12.11,37.37 -16.05,75.54 -12.11,114.75 1.31,13.95 7.63,26.05 14.47,37.64 2.64,4.21 7.63,8.16 12.63,10.79 22.37,12.37 47.11,22.11 73.16,27.63 18.42,3.68 36.06,8.16 55.01,9.48 16.31,1.31 16.31,2.37 33.16,-5.79 2.89,0.26 8.43,0.79 13.42,1.05 2.64,3.16 6.32,6.32 6.84,9.48 1.31,14.47 3.42,28.95 3.16,43.43 0,12.63 -8.68,19.48 -21.32,20.79 -29.74,2.11 -59.21,2.37 -89.74,-2.37 -25.52,-4.21 -49.48,-10 -73.43,-17.64 -16.31,-4.73 -31.84,-7.63 -47.89,-11.85 -11.32,-2.89 -21.84,-7.9 -28.69,-17.64 -2.11,-2.37 -4.73,-5 -7.63,-6.57 -27.37,-13.42 -37.11,-37.9 -46.85,-62.9 -13.69,-34.48 -5,-68.17 3.68,-101.59 11.85,-45.8 25.52,-91.06 42.9,-135.28 5,-13.16 10.79,-26.05 15.8,-38.68 25.27,-57.37 50.27,-114.22 75.27,-171.07 17.64,-38.96 32.12,-78.97 45.8,-122.13z"/>
   <path class="fil0" d="M2777.6 1135.1c-19.21,-113.95 -38.16,-227.39 -56.32,-340.03 -18.16,-112.64 -37.9,-225.28 -55.53,-337.93 -120.01,18.95 -237.65,37.37 -357.66,56.32 -0.79,6.84 -1.84,14.21 -1.84,21.58 -1.58,36.06 -2.64,72.12 -4.21,108.16 -1.58,34.74 -3.95,68.95 -6.32,103.7 -2.11,54.48 -5,108.96 -7.1,163.44 -2.64,47.38 -3.16,94.74 -7.37,142.12 -3.16,39.74 -13.95,78.16 -36.84,113.44 -19.21,28.16 -45.27,47.89 -76.58,60.8 -33.69,14.21 -70.53,20.53 -106.85,26.32 -3.68,0.53 -7.1,0.53 -10.52,0.26 -2.11,-0.26 -4.21,-1.05 -7.63,-2.11 -2.37,-15.53 -5.53,-31.05 -7.1,-45.8 6.57,-8.16 14.21,-8.68 21.58,-9.74 29.74,-3.95 58.16,-9.74 83.95,-23.43 27.11,-14.47 47.64,-34.74 56.06,-63.95 6.84,-22.37 12.63,-45 13.95,-68.43 1.58,-33.16 2.37,-66.33 3.95,-99.48 1.58,-33.69 3.95,-67.11 5.53,-100.8 3.16,-67.11 6.32,-134.22 9.74,-201.34 1.84,-38.95 3.42,-77.9 4.48,-116.59 1.05,-11.58 0,-22.9 0.26,-34.48 -0.53,-5.79 0.26,-11.58 1.31,-19.48 8.43,-1.84 17.64,-4.21 26.85,-5.53 17.64,-2.64 34.48,-4.48 52.11,-7.1 81.85,-12.63 162.91,-24.74 244.76,-37.64 47.89,-7.9 96.06,-16.84 143.96,-24.48 8.43,-1.31 17.64,-6.32 25.27,1.84 19.73,120.54 40.53,241.07 60.01,362.14 19.48,121.32 40.53,242.66 60.27,364.51 -23.98,10.79 -47.41,10.79 -72.15,13.69z"/>
   <path class="fil0" d="M1881.21 655.06c-0.79,1.84 -1.58,2.37 -1.58,2.64 0,1.05 0,2.37 0.53,3.16 12.11,23.16 8.43,45.53 -4.73,67.9 -5.26,9.74 -9.74,20 -15.53,30 -2.37,5.79 -6.06,12.11 0,18.69 2.11,-1.05 5,-1.84 7.1,-2.64 2.11,-1.31 5,-3.16 6.57,-5 26.85,-24.21 34.74,-54.21 32.11,-86.85 -1.05,-8.95 -5.79,-17.89 -14.21,-23.95 -3.15,-2.11 -6.83,-2.64 -10.26,-3.95l0 0zm-436.88 533.47c-5.79,4.73 -11.58,9.48 -18.16,13.95 -6.57,4.48 -13.69,9.48 -20.26,13.42 -8.68,4.48 -16.58,5.79 -26.32,0.53 -0.53,-3.95 -0.26,-8.68 -0.26,-13.69 5.53,-56.85 27.63,-110.27 47.11,-163.7 13.16,-37.37 25.79,-75.01 38.16,-112.11 17.11,-53.43 34.48,-107.12 52.37,-160.28 8.68,-28.16 20,-55.79 30,-83.69 2.37,-7.37 4.73,-15 7.1,-22.9 6.06,-7.9 15.8,-11.32 25.01,-14.21 34.22,-9.21 57.37,-31.32 77.64,-55.27 11.05,-13.42 17.11,-30.27 26.85,-45.53 4.48,-9.48 9.74,-18.69 15.53,-27.9 2.89,-5 6.57,-9.48 13.69,-9.21 7.63,3.95 6.06,10.52 2.89,15.8 -8.43,20 -16.05,40.79 -27.11,59.48 -13.42,23.16 -24.74,46.85 -34.48,71.06 -18.16,40.79 -35.53,81.59 -53.17,122.65 -9.74,22.11 -18.42,44.47 -27.37,67.11 -13.16,34.22 -26.85,68.43 -40.01,102.37 -0.79,2.37 -1.58,5.26 -0.26,8.43 9.74,-17.37 18.69,-35 29.21,-51.59 20.79,-32.37 40.79,-65 62.38,-96.33 19.21,-26.85 39.74,-53.17 61.58,-78.43 35.79,-42.11 80.53,-74.48 133.96,-96.06 12.89,-5 25.52,-9.21 38.95,-11.85 29.74,-6.57 72.12,8.43 84.22,33.69 5.26,11.05 10,22.37 8.68,34.74 -0.53,21.58 -1.84,42.63 -13.16,62.9 -11.85,23.16 -31.32,38.68 -56.32,48.69 -10,3.95 -19.21,4.73 -29.74,3.68 -21.06,-2.11 -31.84,-16.05 -26.58,-34.74 6.32,-20.26 18.16,-38.43 31.32,-56.06 8.16,-11.85 14.21,-24.48 13.16,-38.68 -0.53,-7.63 -0.79,-15.53 -9.21,-21.58 -16.84,0.79 -30.53,8.68 -45.53,15.8 -55.01,25.79 -99.75,63.69 -136.32,109.74 -32.89,42.11 -63.95,86.06 -93.69,131.59 -29.74,48.42 -56.06,98.95 -77.64,151.33 -9.21,20.79 -17.64,41.58 -28.16,62.11 -3.95,9.21 -9.74,17.89 -15,26.85 -4.48,7.9 -8.95,16.05 -12.89,24.21 -1.58,4.73 -3.16,9.21 -6.06,13.95 -0.54,-0.27 -1.33,-0.27 -2.12,-0.27z"/>
   <path class="fil0" d="M3161.85 695.06c1.58,-14.21 -0.79,-26.85 -7.63,-38.43 -16.31,5.53 -47.11,30.53 -52.9,42.9 20.52,-1.58 39.47,-2.9 60.53,-4.48l0 0zm-82.64 150.8c-35.79,-37.11 -41.32,-77.64 -17.89,-124.49 -20.53,1.58 -40.79,0.53 -60.01,4.73 0.53,7.63 -0.26,13.69 0.26,19.48 5,28.69 15,55.79 35,78.96 10.53,12.63 25.28,18.95 42.64,21.32l0 0zm-7.63 -144.22c-23.16,1.58 -45.8,3.16 -66.84,4.73 -4.48,-25.01 17.37,-61.05 42.37,-73.69 26.32,-13.16 79.74,-9.48 94.74,8.95 -12.89,9.21 -26.32,17.64 -38.68,27.63 -11.33,9.74 -20.8,21.05 -31.59,32.37l0 0zm129.22 -88.96c20.53,0 36.58,-1.05 52.11,0 31.58,2.64 59.48,15.27 86.06,31.58 7.63,4.73 7.1,5 11.05,15.8 -2.37,15.27 -12.37,26.05 -26.05,35.26 -40.53,29.21 -87.37,46.32 -137.65,58.43 -23.43,5.79 -47.38,11.85 -71.59,17.37 -10.52,2.64 -21.32,5.26 -31.58,-1.58 0.26,-9.74 8.16,-11.58 15,-13.69 18.95,-5 36.84,-9.21 55.27,-13.95 24.74,-6.32 49.48,-12.37 73.69,-19.73 30.53,-9.21 57.63,-24.74 83.17,-42.11 6.32,-4.21 10.79,-10.52 15.8,-15.53 -16.58,-23.16 -64.74,-39.21 -104.22,-35 17.89,22.63 34.22,45.27 28.95,75.27 -5,7.9 -12.89,8.95 -21.32,8.95 -30.27,0.79 -61.32,1.05 -91.59,2.37 -16.84,0.79 -34.48,2.89 -53.69,4.73 -15.8,20.53 -19.21,44.21 -13.42,70.01 7.1,33.69 32.89,51.32 64.22,62.38 28.95,-2.37 54.48,-12.11 75.27,-30.8 9.21,-7.9 15.8,-17.11 21.06,-28.16 2.89,-6.57 5.79,-12.89 15,-14.21 7.1,3.16 7.63,10 9.48,16.31 -6.84,23.68 -19.21,45 -33.69,66.59 5,0.26 9.74,1.31 14.21,0.53 18.42,-4.21 36.84,-8.43 55.27,-13.42 18.42,-5 33.95,-14.21 47.64,-25.79 13.69,-11.05 26.58,-23.16 39.48,-34.48 5,-4.21 10,-8.16 15.8,-12.37 6.84,6.32 6.06,12.11 1.84,17.11 -9.21,12.11 -17.89,25.52 -29.47,35.79 -19.48,17.64 -41.32,32.11 -67.64,41.58 -19.73,7.37 -41.85,9.74 -62.38,12.37 -10,1.05 -19.73,0.79 -29.74,2.37 -6.32,1.05 -12.63,3.68 -18.42,7.1 -48.42,30.53 -100.8,34.48 -154.76,18.42 -22.37,-6.32 -39.74,-20 -52.9,-35.53 -20.79,-23.16 -37.11,-49.22 -42.63,-79.74 -7.63,-36.84 -2.11,-72.9 13.42,-106.85 19.21,-40.01 50,-70.01 92.64,-87.37 48.16,-19.21 96.85,-22.63 143.44,3.68 4.49,2.38 9.49,4.49 12.91,6.33z"/>
   <path class="fil0" d="M5066.48 950.87c0,10 -0.79,17.89 -0.79,27.11 7.63,4.73 16.31,9.48 25.27,14.74 -3.68,4.48 -6.32,7.37 -10,11.85 -42.9,-8.16 -84.48,-19.73 -126.85,-29.47 4.21,-13.16 7.1,-15.27 17.11,-15 7.1,0 14.21,0.53 21.06,0.79 11.32,-6.06 15.53,-17.11 20,-27.11 16.31,-43.43 32.89,-86.85 49.22,-130.53 3.42,-7.9 3.68,-16.58 5,-26.32 -5,-3.68 -10.52,-7.1 -16.05,-10.27 -5.53,-3.16 -9.74,-5.79 -16.84,-9.48 4.21,-4.48 7.1,-7.37 10,-10.52 42.9,7.1 82.9,18.95 123.69,27.9 3.42,0.53 5.53,3.68 7.63,5.53 -7.1,12.89 -9.21,13.42 -28.16,8.68 -13.95,0.79 -21.84,8.16 -26.05,19.73 -12.11,32.89 -25.52,65.8 -37.9,98.95 0,1.31 0,2.89 0,6.57 48.69,-26.85 94.74,-52.37 141.33,-77.9 0.79,-7.63 0.79,-13.16 0.79,-19.73 -2.11,-12.37 -18.42,-10.27 -24.48,-21.58 3.42,-3.16 7.1,-7.1 10.52,-10.79 40.79,10.27 81.06,20.26 121.06,30.27 0.79,0.26 1.31,2.64 3.42,5.26 -3.42,2.89 -6.32,6.06 -9.21,8.95 -6.32,-0.53 -11.32,-0.53 -16.84,-0.79 -14.74,-0.53 -21.84,3.16 -27.63,17.37 -5,10.52 -8.43,21.84 -12.11,32.64 -13.42,34.22 -26.32,68.69 -38.95,103.17 -3.42,8.43 -6.32,17.11 -8.43,24.48 2.64,19.48 23.95,14.74 32.37,25.52 -5,10.79 -9.21,13.42 -18.42,11.05 -19.73,-5 -39.48,-10 -59.21,-15 -16.84,-3.95 -33.95,-7.9 -50.79,-11.85 -2.89,-0.79 -5,-1.84 -9.21,-2.89 0.79,-4.21 0.79,-7.9 1.58,-13.16 12.11,0.53 21.84,1.05 30.27,1.58 11.85,-5.79 16.84,-13.69 21.06,-22.9 9.21,-24.74 19.21,-49.74 28.43,-74.74 4.21,-9.74 7.9,-19.73 12.11,-32.64 -50.02,28.16 -96.61,54.21 -143.98,80.53z"/>
   <path class="fil0" d="M2166.76 400.82c0.53,4.73 1.84,7.63 1.84,10.79 -2.11,25.79 -4.21,51.32 -6.32,77.11 -2.11,23.68 -3.42,47.89 -8.16,71.59 -8.95,42.63 -18.42,85.01 -30.27,126.85 -11.58,41.32 -26.32,82.37 -40.79,122.9 -19.73,55.01 -51.59,104.48 -90.8,150.28 -24.74,27.63 -51.59,52.37 -78.43,77.9 -10.27,8.68 -21.06,15.27 -33.16,21.06 -22.11,10.79 -44.47,22.37 -69.22,26.85 -45.53,7.37 -76.58,-16.05 -79.48,-58.16 -2.89,-23.68 2.89,-46.32 6.32,-69.74 2.64,-12.11 4.21,-23.95 5.26,-36.06 1.05,-7.9 -1.05,-15.53 -7.9,-21.84 -9.74,-5.53 -20.53,-3.68 -30.27,0 -18.42,6.06 -37.11,12.37 -55.53,18.42 -5.79,1.84 -10.79,3.95 -17.11,6.32 -2.64,-2.64 -4.73,-4.73 -8.95,-8.43 6.57,-4.21 11.58,-8.95 18.69,-11.58 17.11,-7.1 34.22,-14.21 52.9,-19.73 10,-2.89 20.53,-3.68 31.84,-4.48 7.9,-0.53 16.84,2.11 24.74,1.05 24.74,-2.37 52.9,23.16 51.32,50.79 -0.53,13.42 -2.11,26.58 -2.64,40.01 -1.05,17.64 -2.37,35.26 -2.89,53.17 -0.26,7.63 -0.53,15.8 7.1,21.58 11.05,4.48 20.53,0.79 29.74,-5.79 21.58,-16.58 43.43,-33.42 65,-50.53 54.21,-43.43 95.8,-95.8 127.91,-155.54 31.32,-59.74 56.85,-121.06 75.01,-185.28 4.73,-17.64 12.11,-34.48 17.64,-51.84 3.95,-12.63 7.1,-25.52 9.48,-38.43 2.64,-16.84 5,-33.42 13.95,-48.69 1.58,-1.84 2.89,-3.95 2.89,-6.06 3.68,-28.69 7.1,-57.63 10.79,-86.59 0.02,-6.07 -1.82,-13.44 9.5,-17.91z"/>
   <path class="fil0" d="M2916.29 1155.89c-5.79,11.85 -15,13.95 -24.21,16.05 -23.43,5.53 -47.64,11.05 -71.06,17.11 -9.21,2.11 -17.89,5 -28.43,7.63 -2.89,-1.84 -5.53,-3.68 -8.43,-5.53 -1.05,-10.27 4.48,-15 13.16,-17.37 17.64,-4.73 35.53,-9.21 53.43,-13.42 10.52,-2.64 21.32,-4.48 33.42,-6.84 -1.84,-16.31 -2.89,-31.58 -5.26,-46.58 -5,-33.16 -10.52,-66.59 -16.84,-100.28 -4.48,-27.9 -8.68,-55.79 -12.89,-84.22 -7.37,-49.74 -15.27,-100.01 -22.63,-150.01 -8.68,-53.17 -18.16,-106.06 -27.37,-159.22 -7.37,-45.53 -13.42,-91.06 -20.79,-136.59 -3.16,-20.26 -7.63,-40.53 -11.32,-61.05 -1.31,-7.37 -1.05,-14.74 -1.58,-22.63 -0.53,-7.37 3.16,-12.37 8.68,-16.31 11.32,-2.11 18.16,3.16 20,11.85 3.42,10 4.48,20.26 5.53,30.53 6.06,40.01 12.11,80.27 18.42,120.54 7.37,46.58 14.74,93.43 21.58,140.27 9.21,56.85 18.69,113.95 27.37,171.07 8.16,48.69 16.31,97.91 23.68,146.59 3.16,17.89 4.73,35.79 7.9,53.69 0.53,4.73 2.64,9.21 4.48,13.95 2.11,2.89 4.21,6.06 3.95,9.21 3.15,27.36 9.73,54.73 9.2,81.58z"/>
   <path class="fil0" d="M2358.36 544.52c-1.05,18.16 -2.37,34.74 -3.42,51.06 -2.37,36.32 -4.73,72.12 -6.32,108.43 -1.58,37.37 -3.42,74.74 -5,112.11 -0.79,35.79 -3.16,71.59 -2.89,107.12 1.58,53.17 -4.73,105.8 -8.43,158.96 -1.05,18.69 -3.16,37.37 -6.32,55.79 -4.21,21.32 -14.47,40.79 -28.43,58.69 -16.05,21.84 -35.79,41.85 -61.58,55.27 -15.8,8.16 -32.89,14.74 -50,20.53 -37.9,12.11 -74.74,20.53 -114.75,27.11 -2.11,-3.16 -3.95,-5.79 -6.06,-8.68 5.79,-8.43 15,-7.63 22.9,-9.74 27.63,-6.57 56.32,-12.89 83.95,-20 27.63,-7.1 50.79,-21.06 71.85,-40.01 20.26,-18.42 38.43,-38.43 49.74,-62.38 5.26,-11.05 8.95,-22.9 11.58,-34.74 9.74,-44.74 9.48,-90.01 12.11,-135.28 2.11,-33.42 2.37,-67.11 3.16,-100.8 0.53,-20.26 1.84,-40.79 0.26,-61.05 -3.16,-46.32 4.48,-92.11 5.79,-138.17 1.58,-37.11 3.42,-73.96 5.79,-110.8 1.05,-15.8 4.48,-31.58 6.32,-48.16 40.27,-7.37 80.53,-14.74 120.8,-21.58 46.58,-8.16 93.16,-16.05 139.75,-23.68 8.43,-1.31 17.64,-2.89 27.37,-3.95 7.63,-0.79 14.74,-1.05 20.26,6.32 -2.37,10 -10.79,11.58 -19.21,13.16 -21.06,3.68 -41.58,7.1 -63.42,10.52 -21.84,3.42 -43.69,6.32 -65.53,9.74 -31.84,5.53 -65,10.79 -96.85,16.31 -13.68,2.14 -27.88,5.03 -43.41,7.93z"/>
   <path class="fil0" d="M3398.7 1119.04c-4.21,-9.48 0.26,-13.95 5.26,-16.31 10.79,-6.06 22.11,-11.85 33.42,-15.8 12.11,-3.95 24.21,-6.57 36.32,-9.21 9.21,-1.84 18.42,-3.95 27.63,-4.21 42.37,-1.84 84.75,-1.84 127.11,4.21 13.95,2.11 27.37,3.42 40.79,6.06 16.84,2.89 24.74,7.9 33.69,21.06 -1.58,6.32 -3.16,13.42 -5.26,21.84 -7.9,1.05 -16.31,2.64 -23.95,2.64 -14.21,0 -28.16,-1.05 -41.58,-1.31 -42.37,-0.79 -83.95,-1.84 -126.33,-2.37 -16.84,0 -33.16,-2.64 -47.89,-12.89 -19.47,2.09 -39.47,4.19 -59.21,6.3z"/>
   <path class="fil0" d="M484.78 1718.31c-0.53,-1.31 -1.31,-3.42 -1.84,-6.57 6.32,-1.58 12.11,-3.42 17.89,-4.21 52.64,-5.79 103.7,-19.48 152.38,-36.32 66.84,-22.9 133.17,-47.64 198.44,-71.85 15,-5.53 29.47,-12.11 44.74,-18.69 2.11,2.37 5.53,4.48 8.16,7.37 -3.68,2.37 -7.37,4.21 -10.27,5.79 -58.43,26.05 -118.17,50.27 -179.75,69.48 -38.68,12.37 -77.64,25.79 -117.64,36.84 -35.26,10 -71.06,17.89 -107.9,19.21 -1.58,0.26 -2.11,-0.27 -4.21,-1.05z"/>
   <path class="fil0" d="M1061.4 1507.24c-2.11,-2.64 -3.42,-4.21 -5.53,-6.84 29.74,-21.32 60.27,-41.32 88.69,-63.42 29.74,-22.37 58.16,-46.32 85.28,-71.32 26.32,-24.48 49.74,-50.79 76.32,-77.11 2.11,1.58 4.73,3.42 7.63,5.26 -9.21,21.06 -23.95,37.64 -40.79,52.64 -30,28.69 -60.53,56.32 -92.64,83.17 -32.89,27.37 -68.43,51.84 -107.38,72.64 -3.15,1.56 -6.57,2.62 -11.58,4.98z"/>
   <path class="fil0" d="M4167.46 656.9c14.74,-7.37 34.48,-2.11 42.63,12.89 4.21,7.63 8.16,15 12.37,22.11 -6.32,8.68 -12.89,16.05 -17.11,24.48 -5,7.9 -3.68,18.16 -12.11,23.43 -7.9,0.53 -14.21,0.79 -22.63,1.31 -13.16,-26.06 -23.95,-52.64 -3.16,-84.22z"/>
   <path class="fil0" d="M5271.5 998.25c4.21,7.9 9.21,13.69 12.63,20.53 7.1,12.63 3.42,23.95 -10,33.16 -0.79,-0.79 -2.11,-1.05 -3.42,-1.84 -1.31,-0.53 -1.31,-1.84 -2.11,-2.89 0.79,-6.84 1.31,-13.69 2.11,-20.53 -5.53,-8.95 -10.52,-17.89 -16.84,-27.63 0.79,-6.06 1.58,-13.16 3.68,-19.48 9.21,-28.43 18.42,-56.32 28.43,-84.75 2.89,-7.63 4.21,-15 7.9,-22.37 5,-12.11 12.63,-21.84 24.74,-28.69 5.53,-3.68 11.32,-8.43 15.53,-13.69 4.21,-5.26 8.43,-7.9 16.05,-6.57 1.31,2.37 2.89,5 4.21,7.37 -2.89,10.52 -8.43,18.42 -18.42,21.84 -21.84,7.63 -29.74,25.01 -36.06,44.21 -9.21,26.32 -17.64,52.37 -26.32,78.96 -2.11,6.83 -1.32,14.46 -2.11,22.36z"/>
   <path class="fil0" d="M191.59 1010.09c-5.53,-1.84 -8.95,-2.64 -11.85,-3.42 -6.06,-25.79 -6.32,-51.84 -2.37,-77.38 4.73,-30 11.05,-60.01 24.21,-88.43 14.74,-29.74 33.42,-55.79 58.96,-78.43 14.74,-13.16 29.21,-25.79 47.89,-34.48 5,-2.37 10.79,-6.06 17.64,-3.42 -2.37,6.84 -8.16,9.48 -13.95,12.63 -31.84,20.79 -58.16,45.8 -78.43,76.32 -9.74,13.95 -17.37,28.95 -23.68,44.21 -15.8,41.58 -24.74,84.22 -17.37,127.91 0.53,7.11 -0.53,14.48 -1.05,24.48z"/>
   <path class="fil0" d="M4962.26 945.08c-7.9,10.52 -15,19.48 -23.43,29.21 -2.11,-27.37 5,-37.64 30.53,-46.85 13.42,-4.73 21.84,-12.89 26.85,-26.05 9.21,-29.47 20.79,-58.16 30,-87.37 5,-13.69 5.79,-26.85 -8.95,-37.11 -5.53,-3.68 -7.63,-11.32 -10.52,-15.53 2.11,-10.79 7.1,-16.84 14.21,-20.53 5.53,1.84 7.63,5.53 6.84,10 -0.79,9.48 3.42,16.84 8.95,23.68 9.74,11.85 10.52,23.68 5.53,37.64 -10.52,27.11 -19.21,54.21 -28.43,81.59 -2.11,5.53 -4.21,11.05 -6.32,16.58 -5.79,14.21 -15,24.74 -30.53,29.21 -5.53,0.8 -10.52,3.69 -14.74,5.53z"/>
   <path class="fil0" d="M491.88 667.95c11.58,-3.42 21.58,-7.37 31.32,-8.68 33.95,-4.73 67.9,-8.43 102.37,-6.57 66.06,3.42 123.69,23.68 178.97,54.74 16.58,9.74 33.95,18.95 46.58,33.42 3.42,3.42 6.06,6.57 1.05,12.89 -3.42,-2.64 -8.16,-5.26 -11.58,-8.16 -43.16,-33.42 -92.11,-57.11 -146.06,-70.79 -34.22,-8.68 -69.74,-13.42 -106.59,-11.05 -28.16,1.84 -55.79,5 -84.22,9.21 -2.11,0.26 -4.21,0.26 -6.32,0 -1.32,0 -2.64,-1.58 -5.53,-5z"/>
   <path class="fil0" d="M3879.27 426.36c5.53,1.58 10.52,3.16 16.05,4.48 18.69,30.27 15,31.32 -1.31,50 -10.79,13.42 -27.63,12.63 -53.95,-1.58 -6.84,-8.43 -5.53,-18.95 -7.37,-28.43 10.01,-17.11 26.06,-22.37 46.58,-24.47z"/>
   <path class="fil0" d="M3719.26 794.28c-9.21,10.52 -17.11,19.48 -26.58,30.53 -2.11,1.31 -7.9,3.42 -12.11,5.26 -5,7.63 -4.48,14.74 -2.37,22.63 2.64,11.05 -1.58,17.37 -13.16,23.68 -0.79,-1.58 -3.42,-3.42 -3.42,-5 0.79,-11.05 -3.95,-21.06 -6.57,-31.32 -1.31,-3.95 -2.64,-8.95 -1.05,-12.63 4.48,-11.32 3.95,-22.37 1.84,-33.69 -1.31,-14.47 2.37,-20.26 17.37,-26.58 16.84,4.24 33.68,10.03 46.05,27.13z"/>
   <path class="fil0" d="M2368.62 860.33c-6.84,-3.95 -5.26,-9.74 -5.26,-15 0.79,-31.84 1.58,-63.69 2.37,-95.53 -0.53,-29.74 -1.31,-58.96 -1.31,-88.69 0.26,-7.63 0.53,-15.53 1.31,-23.16 0.79,-5 3.16,-9.74 5.26,-14.74 7.63,1.58 9.74,5 9.74,10 -0.53,19.48 -0.26,39.21 -0.79,58.96 -0.26,36.58 -0.53,73.16 -0.53,110.01 -0.53,15.27 -1.58,30.53 -2.64,46.05 -0.27,5.78 -1.05,10 -8.16,12.1z"/>
   <path class="fil0" d="M4208.77 1092.99c5,3.68 9.21,6.57 16.84,12.11 -5.79,3.68 -10,6.57 -15,9.74 -36.84,-1.58 -72.12,-3.42 -108.69,-4.73 -10,-0.53 -20.53,0.26 -30.27,0.79 -7.9,0 -13.42,-2.89 -16.84,-10 5,-8.95 15,-8.43 22.63,-8.68 12.11,-0.53 23.95,0.79 35.26,1.05 33.43,-0.01 65.28,-0.27 96.07,-0.27z"/>
   <path class="fil0" d="M2914.2 916.14c-4.21,1.84 -6.32,3.42 -10,5.26 -8.16,-14.47 -6.32,-30.27 -9.48,-44.74 -3.16,-14.74 -2.89,-30.27 -4.48,-45.27 -1.84,-14.74 -3.68,-29.21 -5.53,-43.96 -2.64,-15 -4.21,-30.27 -6.06,-46.58 2.89,-2.11 5.79,-4.73 11.58,-8.16 1.84,5.53 4.73,9.48 4.48,13.42 5.8,56.59 16.59,112.65 19.49,170.02z"/>
   <path class="fil0" d="M2936.04 995.35c1.31,4.21 3.42,8.16 3.16,12.11 4.21,27.11 8.16,53.95 13.16,80.8 1.84,12.89 4.48,25.52 6.32,38.68 1.31,8.43 1.05,17.11 0.79,26.05 -3.68,2.11 -6.32,3.42 -9.21,5 -2.11,-1.58 -4.21,-2.37 -4.21,-3.68 -2.64,-8.43 -4.48,-16.84 -5.79,-25.52 -5,-35.79 -9.74,-71.32 -15.53,-106.59 -0.53,-5.26 -0.53,-11.05 -0.26,-16.31 -0.01,-5.27 2.36,-8.69 11.57,-10.53z"/>
   <path class="fil0" d="M2364.41 937.18c6.84,3.16 6.06,9.21 6.06,14.47 -2.11,31.32 -4.48,62.64 -6.06,94.22 -1.31,22.63 -3.16,45.27 -4.48,67.64 -0.26,6.06 -0.26,12.37 -8.16,15.27 -7.1,-2.37 -6.06,-7.9 -6.06,-13.42 1.31,-23.16 2.64,-46.32 3.95,-69.48 2.11,-30.53 4.48,-60.53 6.57,-90.8 0.27,-6.58 -1.04,-13.96 8.17,-17.9z"/>
   <path class="fil0" d="M2839.19 521.89c-2.64,-5.79 -5.53,-9.21 -6.06,-12.89 -4.21,-33.42 -7.63,-66.59 -12.63,-99.75 -0.53,-5.53 -1.84,-10.52 -1.84,-15.8 -0.53,-6.84 1.05,-13.16 10.27,-15 5.53,3.95 7.63,9.21 7.37,15.27 1.05,13.95 2.89,27.9 3.95,41.85 2.37,16.05 5,32.11 6.06,48.42 1.31,9.48 0.26,19.21 0,29.21 -0.01,2.11 -3.43,4.21 -7.11,8.68z"/>
   <path class="fil0" d="M3656.89 962.45c-11.85,-5 -8.95,-15.8 -7.37,-22.9 3.68,-17.64 -2.89,-38.68 15,-52.37 12.63,2.89 6.84,12.37 10.27,19.21 5,-1.58 10,-2.89 16.31,-5 2.64,2.64 5.53,5.53 8.43,7.9 -0.79,2.11 -0.79,3.16 -1.58,4.21 -11.58,15.53 -22.9,31.05 -34.48,46.05 -1.84,1.85 -4.47,1.85 -6.57,2.9z"/>
   <path class="fil0" d="M4848.83 1155.63c-9.21,-5.53 -11.85,-13.16 -11.85,-22.11 -0.53,-8.16 -2.11,-16.58 -2.64,-25.79 7.9,-12.89 13.42,-14.74 28.95,-7.1 6.84,14.21 0,28.69 -1.58,43.16 -0.78,5.53 -4.98,10 -12.88,11.85z"/>
   <path class="fil0" d="M4766.72 1194.31c-2.89,8.68 -6.32,11.85 -12.63,11.85 -26.05,-1.05 -52.37,-2.37 -79.74,-3.95 -5.53,-0.26 -9.74,-2.89 -15.53,-4.48 0,-9.74 1.58,-11.85 10,-11.05 7.63,0.53 14.74,3.16 21.84,3.68 20.53,1.05 41.58,1.31 62.9,2.11 3.95,0 7.37,0.79 13.16,1.84z"/>
   <path class="fil0" d="M2867.61 695.59c-6.06,-12.37 -4.48,-26.85 -6.06,-40.27 -2.64,-13.16 -4.48,-26.58 -6.32,-39.74 2.89,-4.21 3.16,-10.27 11.58,-7.9 6.06,9.48 6.57,21.32 7.63,32.37 2.37,14.74 2.89,30 3.16,45 0.79,5.53 -0.79,9.74 -10,10.53z"/>
   <path class="fil0" d="M739.27 1085.35c8.68,-4.73 14.47,-9.21 21.58,-12.37 20,-10 41.06,-19.73 62.38,-29.21 5,-2.37 12.37,-7.1 17.64,-0.53 -7.37,10 -27.63,21.32 -79.22,41.85 -6.07,2.64 -11.86,7.11 -22.38,0.27z"/>
   <path class="fil0" d="M2060.7 1315.64c3.68,-1.84 6.57,-3.95 9.21,-4.73 22.63,-4.73 45.53,-8.95 68.17,-13.42 4.21,-0.79 8.68,-1.84 14.21,-1.84 2.11,0 4.21,2.37 7.63,4.73 -4.21,2.64 -6.57,5.53 -9.21,6.06 -25.79,6.06 -50.53,11.58 -76.85,16.84 -5,1.31 -10.79,0.26 -13.16,-7.64z"/>
   <path class="fil0" d="M2303.61 1213.53c2.11,3.42 3.42,5.79 4.73,7.63 -12.63,20.79 -45,45 -67.11,49.22 -0.53,-1.58 -2.11,-3.42 -3.42,-5.26 21.85,-17.11 43.43,-33.69 65.8,-51.59z"/>
   <path class="fil0" d="M695.58 1176.42c-17.11,-15.53 -16.31,-33.42 -8.68,-51.59 2.37,-7.63 7.1,-17.64 21.84,-15.27 -0.79,3.68 -0.26,7.63 -2.37,10.52 -7.63,12.63 -9.48,25.27 -3.68,38.68 3.15,6.33 4.47,13.44 -7.11,17.65z"/>
   <path class="fil0" d="M2478.1 539.26c1.31,1.84 2.64,3.68 3.95,6.57 -2.11,1.84 -4.21,4.21 -6.32,4.73 -9.21,2.11 -19.73,3.95 -28.95,5.53 -14.21,2.11 -28.95,3.95 -43.69,5.53 -2.89,0.53 -6.32,-0.79 -11.85,-1.58 2.89,-3.68 3.68,-7.37 5.79,-8.16 8.43,-2.11 16.31,-3.95 23.95,-5 18.15,-2.88 36.58,-5.26 57.11,-7.63z"/>
   <path class="fil0" d="M998.24 1530.66c2.64,3.42 3.95,4.73 4.73,5.79 0,1.31 0,2.64 -0.79,3.42 -16.58,11.05 -32.89,24.48 -57.11,26.58 0.79,-4.21 1.05,-7.1 1.84,-7.9 16.57,-9.47 33.15,-18.42 51.32,-27.89z"/>
   <path class="fil0" d="M2335.72 1154.83c4.21,-2.11 7.1,-3.68 10.79,-5.53 6.84,12.11 2.37,22.11 -2.89,31.58 -4.48,7.1 -6.06,17.64 -20.26,17.11 -3.16,-16.57 15.26,-26.58 12.36,-43.16z"/>
   <path class="fil0" d="M4020.87 1105.89c-7.1,-0.53 -12.63,-1.05 -17.64,-1.31 -4.73,-5.26 -3.42,-9.74 0.79,-13.42 7.9,-7.37 17.11,-11.05 28.43,-6.06 0.53,3.42 1.31,7.37 1.84,11.58 -4.73,3.16 -8.42,5.79 -13.42,9.21z"/>
   <path class="fil0" d="M956.92 985.09c19.48,-8.16 34.74,-22.11 57.11,-21.06 -4.48,10.52 -4.48,10.52 -36.84,22.63 -5.52,2.38 -10.52,6.84 -20.26,-1.57z"/>
   <path class="fil0" d="M638.21 1291.17c15.27,-8.43 28.95,-15.8 43.96,-20.79 2.11,-0.79 6.32,1.05 11.85,2.37 -10.52,13.69 -26.05,15.27 -38.43,21.58 -4.74,2.36 -10.01,4.72 -17.38,-3.16z"/>
   <path class="fil0" d="M2932.62 1183.79c2.11,2.89 4.21,5.53 5.53,7.9 -2.89,8.16 -31.32,12.37 -43.96,7.9 6.57,-9.48 6.57,-9.75 38.43,-15.8z"/>
   <path class="fil0" d="M2633.91 517.68c-16.31,10.79 -31.05,9.74 -46.05,12.63 -1.31,-1.84 -3.42,-3.16 -4.73,-4.73 0.79,-1.58 1.58,-3.95 2.11,-4.48 12.63,-2.89 24.74,-5.53 38.16,-7.63 2.36,-0.54 4.99,1.84 10.52,4.21z"/>
   <path class="fil0" d="M2842.61 549.79c5,-2.37 7.9,-3.95 11.32,-6.32 2.11,2.89 5.53,5.26 6.06,7.9 1.31,10.27 3.68,20.79 -4.21,30.8 -15.01,-8.44 -7.64,-21.33 -13.17,-32.38z"/>
   <path class="fil0" d="M2822.35 1218c8.68,-14.21 20,-14.21 30.8,-15 5.79,-0.26 12.11,-1.84 13.95,6.57 -7.37,9.48 -20,5.26 -30,9.48 -3.43,1.31 -8.43,-0.53 -14.74,-1.05z"/>
   <path class="fil0" d="M2556.26 527.68c-3.68,3.68 -5.79,6.32 -7.9,7.1 -12.11,3.16 -23.43,7.63 -37.37,5.53 -1.31,-1.58 -2.64,-3.68 -3.42,-5.53 0.79,-1.58 1.58,-2.89 2.11,-3.16 15,-1.83 28.69,-8.67 46.58,-3.94z"/>
   <path class="fil0" d="M2182.55 1298.8c-2.64,-2.64 -4.21,-4.21 -5.53,-5.79 0.79,-1.84 0.79,-3.95 2.11,-4.73 9.48,-4.48 19.21,-8.95 30.8,-13.69 2.11,2.89 3.95,5 6.84,7.9 -9.21,10 -21.84,11.31 -34.22,16.31z"/>
   <path class="fil0" d="M2361.25 927.19c-11.85,-10.52 -3.68,-21.06 -5.53,-30.8 3.68,-1.84 5.79,-3.42 8.68,-5.26 2.11,2.11 4.21,3.68 3.95,5.53 1.84,10.27 4.48,20.79 -7.1,30.53z"/>
   <path class="fil0" d="M2918.66 939.55c12.37,10.79 12.37,18.16 0,28.69 -11.58,-10.52 -11.31,-20.26 0,-28.69z"/>
   <path class="fil0" d="M415.55 692.69c-15.27,9.74 -29.47,13.16 -44.47,18.69 -1.31,-1.58 -3.42,-3.16 -6.84,-5.79 15,-5.53 27.9,-10.27 40.79,-14.74 2.89,-0.79 5.79,0.8 10.52,1.84z"/>
   <path class="fil0" d="M2376.51 574.53c5,3.16 7.63,4.73 11.05,6.57 -2.37,8.68 3.16,18.95 -9.74,25.27 -10.26,-9.47 -5.79,-19.48 -1.31,-31.84z"/>
   <path class="fil0" d="M874.55 1024.04c10.27,-7.63 19.48,-13.69 32.89,-12.89 1.05,10 -7.37,10 -12.63,13.16 -5.53,2.88 -12.11,6.57 -20.26,-0.27z"/>
   <path class="fil0" d="M710.06 1209.31c-3.16,-6.84 -6.57,-12.89 -10.52,-19.21 14.21,-4.73 14.21,-4.73 21.32,13.69 -2.89,1.31 -5.79,2.89 -10.79,5.52z"/>
   <path class="fil0" d="M3959.28 1081.41c2.89,5 4.73,7.63 6.84,11.05 -3.42,2.64 -7.1,5 -11.32,8.16 -4.21,-2.89 -8.43,-5.26 -13.95,-9.48 6.84,-3.67 11.84,-6.31 18.42,-9.73z"/>
   <path class="fil0" d="M724.27 1239.84c1.05,7.37 -3.95,11.58 -10.52,15.27 -7.63,-3.16 -6.06,-8.16 -3.16,-12.63 3.95,-4.73 8.16,-7.1 13.69,-2.64z"/>
   <path class="fil0" d="M448.72 677.43c3.42,-0.79 6.32,-1.31 9.21,-1.84 0,1.05 0,1.84 0.53,2.64 -2.11,1.05 -5,2.37 -7.9,3.42 0,-1.59 -1.31,-2.9 -1.84,-4.22z"/>
  </g>
 </g>
</svg>
